<svg width="82" height="26" viewBox="0 0 82 26" fill="none" xmlns="http://www.w3.org/2000/svg">
<path d="M40.0765 25.982C36.168 25.8387 32.1527 24.8783 28.0478 23.1051C26.3772 22.3835 24.6104 21.4896 22.8126 20.4564C21.6268 19.7749 18.9125 18.1012 18.7613 17.9583C18.6663 17.8684 18.629 17.784 18.629 17.6586C18.629 17.4263 18.7947 17.2604 19.0262 17.2608C19.1463 17.261 19.1753 17.2737 19.4587 17.4507C20.5963 18.161 22.1697 18.9657 23.7029 19.6211C30.8432 22.6734 39.3026 23.7453 47.4229 22.6265C52.9685 21.8625 58.299 20.0748 62.4571 17.5844C63.057 17.2251 63.1123 17.2062 63.292 17.2995C63.5403 17.4284 63.5942 17.7439 63.4008 17.9369C63.3248 18.0128 63.2314 18.073 61.8666 18.9268C58.2264 21.2037 55.2875 22.707 52.2275 23.8571C48.1117 25.4042 43.9872 26.1255 40.0765 25.982Z" fill="#222222"/>
<path fill-rule="evenodd" clip-rule="evenodd" d="M9.11318e-06 0.40187C9.11318e-06 0.40187 0.0769669 0.645911 0.151417 1.33947C0.240664 3.06721 0.245399 4.49932 0.255713 6.09616C0.276261 7.32924 0.264246 8.53078 0.253634 9.6878C0.246496 10.4713 0.241121 10.8984 0.241121 11.6108C0.241121 13.7308 0.0742196 15.2166 0.0742196 15.2166C0.0742196 15.2166 1.6299 15.5538 3.97804 15.5538C6.32699 15.5538 8.81928 14.735 10.2574 13.5063C11.6952 12.2777 12.9891 10.519 12.9891 7.3636C12.9891 4.2081 11.6472 2.47358 9.87396 1.3416C8.10022 0.209101 5.39221 -0.00734711 3.30704 0.0888424C1.22239 0.185421 0.0721384 0.40187 0 0.40187H9.11318e-06ZM81.6719 12.2777L78.5348 11.5311C77.7117 12.3497 76.8223 12.7565 75.6804 12.7353C73.329 12.6919 72.1604 11.2988 71.7259 9.00142H81.8388C81.9825 8.18247 82.0297 7.31525 81.9821 6.49629C81.886 4.84216 81.3806 3.31968 80.3525 2.01601C79.3349 0.72533 77.5841 0.0484533 75.4195 0.0646439C73.387 0.0801411 71.7257 0.780307 70.4105 2.18475C69.1746 3.50413 68.4347 5.51617 68.4692 8.13424C68.5022 10.6214 69.1318 12.4733 70.674 13.988C71.7476 15.0426 73.1907 15.6059 75.0837 15.6018C78.6906 15.4924 80.1894 14.3239 81.6719 12.2777ZM79.104 6.44842H71.8447C71.9728 4.56112 73.6918 2.80337 75.513 2.81207C77.3981 2.82077 79.0171 4.17606 79.104 6.44842ZM47.2711 2.92037C49.6719 2.92037 51.6187 5.10488 51.6187 7.79862C51.6187 10.4924 49.6719 12.677 47.2711 12.677C44.8712 12.677 42.9241 10.4924 42.9241 7.79862C42.9241 5.10488 44.8712 2.92037 47.2711 2.92037ZM47.3646 1.81198e-05C51.3932 1.81198e-05 54.6597 3.51824 54.6597 7.79862C54.6597 12.079 51.2997 15.5501 47.2711 15.5501C43.2434 15.5501 39.9765 12.079 39.9765 7.79862C39.9765 3.51824 43.3369 1.81198e-05 47.3646 1.81198e-05ZM55.2919 15.0238H58.5487V5.12315C61.5285 7.74905 63.7242 11.0494 65.0422 15.0238L67.8399 15.0406V0.498061L64.7213 0.498064L64.718 7.62287C63.7417 5.98172 62.5462 4.63196 61.3708 3.46837C60.1935 2.30297 59.2373 1.31617 58.0454 0.498064H55.2919V15.0238ZM26.8411 15.0238H30.0045V5.12315C32.9843 7.74905 35.1337 11.0494 36.4516 15.0238H39.2794V0.498059H36.1157V7.5068C34.2775 4.84471 32.0506 2.45358 29.5017 0.498059H26.8411V15.0238ZM17.8064 0.498059H20.874C23.8527 3.81053 25.676 8.62839 26.2903 15.0238H22.9588C22.8722 13.9131 22.7372 12.8922 22.5541 11.8672H15.9777C15.7951 12.8906 15.6612 13.9113 15.5776 15.0238H12.3422C12.9258 8.58986 14.8809 3.61166 17.8064 0.498059ZM21.9403 9.14635C21.2251 6.85063 20.3737 4.96202 19.2214 3.22015C18.0765 4.96878 17.181 6.94014 16.5482 9.14635H21.9403ZM3.33496 2.93119C3.33496 2.93119 3.97805 2.90699 4.76924 2.90699C5.56031 2.90699 7.28816 3.05158 8.55805 4.30429C9.82808 5.55704 9.85215 6.97806 9.85215 7.96598C9.85215 8.95359 9.51444 11.0973 7.42928 12.0607C5.3445 13.0246 3.31101 12.6632 3.31101 12.6632L3.33496 2.93119Z" fill="#222222"/>
</svg>
