<svg width="48" height="28" viewBox="0 0 48 28" fill="none" xmlns="http://www.w3.org/2000/svg">
<path fill-rule="evenodd" clip-rule="evenodd" d="M38.5829 0V21.0518H33.6007V1.0528L38.5829 0ZM24.398 23.0468C25.7734 23.0468 26.8891 24.1556 26.8891 25.5234C26.8891 26.8912 25.7734 28 24.398 28C23.0225 28 21.9069 26.8912 21.9069 25.5234C21.9069 24.1556 23.0218 23.0468 24.398 23.0468ZM24.398 5.9787C28.6394 5.9787 32.0849 9.3975 32.0849 13.6213C32.0849 17.8458 28.6394 21.2653 24.398 21.2653C20.1495 21.2653 16.711 17.8458 16.711 13.6213C16.711 9.3975 20.1565 5.9787 24.398 5.9787ZM24.398 16.0979C25.7748 16.0979 26.8891 14.9905 26.8891 13.6213C26.8891 12.2528 25.7748 11.1447 24.398 11.1447C23.0211 11.1447 21.9069 12.2528 21.9069 13.6213C21.9069 14.9905 23.0211 16.0979 24.398 16.0979ZM8.72518 16.0979C9.58394 16.0979 10.2821 15.4035 10.2821 14.5509C10.2799 14.1387 10.1148 13.7443 9.8229 13.454C9.53103 13.1638 9.13627 13.0014 8.72518 13.0025H4.98921V16.0979H8.72518ZM4.98921 4.9539V8.0493H7.7568C8.61487 8.0493 9.31375 7.3542 9.31375 6.5009C9.31116 6.08898 9.14585 5.69488 8.85403 5.40492C8.5622 5.11496 8.16765 4.95278 7.7568 4.9539H4.98921ZM13.3129 9.9204C14.5166 11.1034 15.2643 12.7414 15.2574 14.5502C15.2574 18.1412 12.3306 21.0518 8.7182 21.0518H0V0H7.74982C11.3615 0 14.2883 2.9099 14.2883 6.5009C14.2883 7.7539 13.9357 8.9299 13.3129 9.9204ZM47.993 11.214H45.5089V15.1011C45.5089 16.2771 45.8894 17.1437 46.8857 17.1437C47.5294 17.1437 48 16.9995 48 16.9995V20.6458C48 20.6458 46.9688 21.2646 45.571 21.2646H45.5089C45.446 21.2646 45.3916 21.2576 45.3288 21.2576H45.2806C45.2527 21.2576 45.2177 21.2506 45.1905 21.2506C42.409 21.1064 40.5197 19.3662 40.5197 16.3457V3.5287L45.5019 2.4766V6.2601H47.993V11.214Z" fill="#111111"/>
</svg>
