<svg width="166" height="30" viewBox="0 0 166 30" fill="none" xmlns="http://www.w3.org/2000/svg">
<path fill-rule="evenodd" clip-rule="evenodd" d="M60.2317 10.8628C60.2317 10.5904 60.4176 10.4448 60.6511 10.4448C61.0462 10.4448 61.6427 10.8628 61.9791 11.6987C61.8585 11.6987 61.677 11.7351 61.5553 11.7351C60.8359 11.7351 60.2317 11.3943 60.2317 10.8628ZM16.7107 10.8628C16.7107 10.5904 16.8889 10.4448 17.1324 10.4448C17.5175 10.4448 18.0896 10.8628 18.4216 11.6987C17.3106 11.6987 16.7107 11.4594 16.7107 10.8628ZM25.1048 6.54303C25.1048 2.07109 25.9791 1.38404 26.2502 1.38404C26.7327 1.38404 26.7903 1.68401 26.7903 3.39889C26.7903 5.1612 26.0367 7.46719 25.1048 8.73323V6.54303ZM55.6611 10.9521C55.1432 11.6711 54.7238 12.6924 54.7238 14.008C54.7238 16.528 56.1658 18.9332 58.9679 18.9332C61.677 18.9332 63.5749 16.8004 63.5749 13.826C63.5749 12.9625 63.5417 12.8434 63.4853 12.485C64.115 12.2115 64.6584 11.7936 65.0811 11.4594C65.4408 11.1892 65.7097 11.0381 65.9244 11.0381C66.1944 11.0381 66.3128 11.2488 66.3128 11.6381V17.5227C66.3128 18.4811 66.6172 18.9332 67.3664 18.9332C68.057 18.9332 68.5428 18.4502 68.8117 17.8811C69.8077 15.8111 71.2497 13.0519 71.8794 12.0042C72.031 11.7638 72.1539 11.5796 72.2402 11.5796C72.3608 11.5796 72.4228 11.6711 72.4228 12.0593V16.7441C72.4228 18.062 73.027 18.9332 74.3462 18.9332C75.7339 18.9332 76.4223 17.6087 77.6352 15.5696C77.6927 15.4472 77.7182 15.3601 77.7182 15.2729C77.7182 15.0028 77.4836 14.8495 77.2412 14.8495C76.9679 14.8495 76.8174 15.1219 75.9165 16.1089C75.7339 16.2964 75.5569 16.5566 75.2227 16.5566C75.1031 16.5566 75.0113 16.4122 75.0113 16.2291V10.9775C75.0113 9.56696 74.3783 8.9979 73.566 8.9979C72.9053 8.9979 72.3608 9.2681 71.7898 10.1084C70.7661 11.6116 69.7125 13.7433 69.1426 14.8175C69.0784 14.9432 68.9921 15.1219 68.9334 15.1219C68.8704 15.1219 68.8438 15.0292 68.8438 14.8175V10.9775C68.8438 9.87023 68.5428 8.9979 67.3664 8.9979C66.1313 8.9979 65.5005 9.83936 64.5975 10.468C64.0254 10.8925 63.5152 11.1892 63.1256 11.369C62.5203 9.83936 61.4081 9.06407 60.4752 9.08723C59.5389 9.11922 58.8771 9.69268 58.8771 10.6532C58.8771 11.6381 59.4825 12.324 60.2914 12.6295C60.7408 12.8092 61.1635 12.8434 61.7689 12.8434C61.9503 12.8434 62.1296 12.8434 62.2458 12.8092C62.31 13.1081 62.2812 13.5338 62.2812 13.8624C62.2812 15.3347 61.4081 16.8004 59.7846 16.8004C58.0947 16.8004 57.1053 15.1803 57.1053 13.3221C57.1053 11.9105 57.5248 10.7426 58.212 9.9353C58.4898 9.63313 58.6967 9.45006 58.6967 9.17325C58.6967 9.03319 58.4898 8.9979 58.3072 8.9979C57.1607 8.9979 55.9002 9.50961 55.0292 9.95736C53.8794 10.5584 52.5281 11.552 51.4126 12.5413C50.8715 11.3381 50.2097 10.2882 49.8766 9.47543C49.757 9.14568 49.6696 8.763 49.4284 8.763C49.2148 8.763 49.1218 8.97254 48.9746 9.3861C48.4346 10.9775 45.5428 15.6314 44.9109 16.2611C44.8512 16.3471 44.7637 16.4419 44.735 16.4419C44.6697 16.4419 44.6354 16.4122 44.6354 16.2291V10.9775C44.6354 9.56696 44.0643 8.9979 43.2874 8.9979C42.6223 8.9979 42.0524 9.2681 41.5112 10.1084C40.5197 11.6116 39.3101 13.8018 38.7401 14.8792C38.6483 15.0645 38.5575 15.1219 38.5265 15.1219C38.4967 15.1219 38.4723 15.0028 38.4723 14.8175V10.9775C38.4723 9.56696 37.898 8.9979 37.1144 8.9979C36.4504 8.9979 35.8218 9.24383 35.3072 10.1084C34.0456 12.2413 31.9396 15.5112 31.5479 16.0471C31.487 16.1398 31.4261 16.2004 31.3664 16.2291C31.3066 16.2291 31.2723 16.1706 31.2723 16.0218V10.9775C31.2723 9.56696 30.7013 8.9979 29.9233 8.9979C28.8376 8.9979 28.2389 9.99265 27.8438 10.6191C27.2994 11.4892 26.58 12.6615 26.0101 13.7433C25.6172 14.4668 25.2841 15.1219 25.1624 15.1219C25.1048 15.1219 25.1048 14.8495 25.1048 14.3411V10.3224C26.9984 8.21821 28.1736 5.64092 28.1736 2.82101C28.1736 1.19766 27.4543 0.302172 26.3432 0.302172C24.2616 0.302172 22.6702 3.54336 22.6702 7.38007V10.4999C21.7051 11.101 20.801 11.3943 19.6855 11.6116C19.1155 9.9353 17.9093 9.06407 16.9498 9.08723C16.0191 9.11922 15.354 9.69268 15.354 10.6532C15.354 12.2413 16.9199 12.9008 18.301 12.9008H18.6928C18.7514 13.203 18.7514 13.5338 18.7514 13.8624C18.7514 15.3347 17.8794 16.8004 16.2581 16.8004C14.5738 16.8004 13.5777 15.1803 13.5777 13.3221C13.5777 11.9105 13.995 10.7426 14.6877 9.9353C14.9611 9.63313 15.1736 9.36294 15.1736 9.17325C15.1736 9.03319 14.9611 8.9979 14.7785 8.9979C13.6353 8.9979 11.1099 10.5341 8.09751 13.5338C7.83081 11.133 7.52758 8.79058 7.52758 6.50994C7.52758 3.96133 8.03333 1.79649 8.15395 1.1723C8.21482 0.785207 8.25245 0.541484 8.25245 0.365033C8.25245 0.123516 8.12407 0 7.79982 0C5.3585 0 0 3.872 0 9.6618C0 13.7676 1.50839 15.7494 4.12235 18.2991C2.53538 20.8499 1.26271 23.8782 1.26271 26.5791C1.26271 28.5255 1.71866 30 3.15955 30C6.1708 30 8.42619 23.7636 8.42619 19.1405C8.42619 17.762 8.37086 16.3802 8.25245 15.0028C9.36244 13.826 11.0789 12.2413 11.4972 12.0913C11.3179 12.7221 11.1973 13.3838 11.1973 14.008C11.1973 16.528 12.6448 18.9332 15.4414 18.9332C18.0642 18.9332 20.0473 16.8004 20.0473 13.826C20.0473 13.4423 20.0164 13.1081 19.9898 12.7497C20.9482 12.5699 21.8302 12.324 22.6702 11.8222V17.8513C22.6702 18.6277 23.208 18.9332 23.7204 18.9332C24.4165 18.9332 24.7773 18.4502 25.2841 17.3462C25.7102 16.4419 26.8501 14.3742 27.5417 13.1401C28.0873 12.1773 28.3883 11.552 28.6307 11.552C28.6871 11.552 28.7513 11.6987 28.7513 12.0593V17.1908C28.7513 18.5715 29.474 18.9332 30.0992 18.9332C30.7013 18.9332 31.0952 18.6035 31.487 18.062C33.0541 15.8398 34.7118 13.203 35.3692 12.0593C35.4909 11.8542 35.6403 11.6987 35.7621 11.6987C35.8794 11.6987 35.9403 11.7638 35.9403 12.1487V17.5227C35.9403 18.4811 36.2413 18.9332 36.9971 18.9332C37.6855 18.9332 38.1359 18.4502 38.4048 17.8811C39.4052 15.8111 40.876 13.0794 41.5112 12.0042C41.6584 11.7638 41.81 11.552 41.8997 11.552C42.0247 11.552 42.0524 11.6987 42.0524 12.0913V17.1908C42.0524 18.5715 42.7751 18.9332 43.4114 18.9332C44.2469 18.9332 44.7947 18.33 45.3359 17.6429C46.323 16.3471 47.7695 14.0466 48.6437 12.5699C48.947 13.0519 49.2745 13.6231 49.5501 14.2517C48.8263 15.1219 48.1026 16.1089 48.1026 17.1577C48.1026 18.2693 48.885 18.9332 49.6984 18.9332C51.0806 18.9332 52.3433 17.6087 52.3433 15.7825C52.3433 15.0645 52.1364 14.3124 51.8675 13.5945C53.0948 12.3913 54.5722 11.2212 55.6611 10.9521ZM6.07784 17.4918C6.32131 19.0799 6.53268 20.6437 6.53268 21.8711C6.53268 24.7462 5.57209 28.1076 3.9154 28.08C3.27575 28.08 2.7379 27.4426 2.71134 26.3386C2.65048 22.7423 4.36582 19.6809 6.07784 17.4918ZM50.0271 15.4472C50.2097 15.9633 50.3015 16.3802 50.3015 16.8004C50.3015 17.2812 50.12 17.762 49.7869 17.762C49.5501 17.762 49.3088 17.4918 49.3088 17.0705C49.3088 16.6195 49.6984 15.8993 50.0271 15.4472ZM7.16459 1.14032C7.16459 1.32338 6.74295 2.16042 6.20289 3.66246C5.63074 5.21965 5.08515 7.43742 5.08515 10.1084C5.08515 11.6987 5.48024 13.8018 5.81334 15.9302L4.84943 17.2249C3.31227 15.3601 2.35057 13.2636 2.35057 9.6618C2.35057 4.56347 5.45036 1.02673 7.04285 1.02673C7.13803 1.02673 7.16459 1.05319 7.16459 1.14032Z" fill="#222222"/>
<path fill-rule="evenodd" clip-rule="evenodd" d="M148.516 10.8628C148.516 10.5904 148.692 10.4448 148.935 10.4448C149.323 10.4448 149.927 10.8628 150.256 11.6987C150.139 11.6987 149.959 11.7351 149.833 11.7351C149.117 11.7351 148.516 11.3943 148.516 10.8628ZM104.986 10.8628C104.986 10.5904 105.169 10.4448 105.407 10.4448C105.799 10.4448 106.377 10.8628 106.701 11.6987C105.588 11.6987 104.986 11.4594 104.986 10.8628ZM113.385 6.54303C113.385 2.07109 114.254 1.38404 114.529 1.38404C115.009 1.38404 115.07 1.68401 115.07 3.39889C115.07 5.1612 114.315 7.46719 113.385 8.73323V6.54303ZM94.364 17.4918C94.5975 19.0799 94.8166 20.6437 94.8166 21.8711C94.8166 24.7462 93.8549 28.1076 92.1949 28.08C91.5641 28.08 91.0218 27.4426 90.9919 26.3386C90.93 22.7423 92.6486 19.6809 94.364 17.4918ZM138.312 15.4472C138.495 15.9633 138.581 16.3802 138.581 16.8004C138.581 17.2812 138.401 17.762 138.07 17.762C137.832 17.762 137.584 17.4918 137.584 17.0705C137.584 16.6195 137.979 15.8993 138.312 15.4472ZM95.4419 1.14032C95.4419 1.32338 95.0246 2.16042 94.479 3.66246C93.9113 5.21965 93.3657 7.43742 93.3657 10.1084C93.3657 11.6987 93.7675 13.8018 94.0961 15.9302L93.13 17.2249C91.5973 15.3601 90.6289 13.2636 90.6289 9.6618C90.6289 4.56347 93.7354 1.02673 95.3279 1.02673C95.4153 1.02673 95.4419 1.05319 95.4419 1.14032ZM90.4231 16.1398C90.9609 16.8599 91.6249 17.5492 92.4074 18.2991C90.8104 20.8499 89.5477 23.8782 89.5477 26.5791C89.5477 28.5255 90.0026 30 91.4479 30C94.4547 30 96.7101 23.7636 96.7101 19.1405C96.7101 17.762 96.6514 16.3802 96.5308 15.0028C97.6463 13.826 99.3561 12.2413 99.7833 12.0913C99.6018 12.7221 99.4768 13.3838 99.4768 14.008C99.4768 16.528 100.923 18.9332 103.725 18.9332C106.341 18.9332 108.328 16.8004 108.328 13.826C108.328 13.4423 108.3 13.1081 108.267 12.7497C109.232 12.5699 110.111 12.324 110.949 11.8222V17.8513C110.949 18.6277 111.487 18.9332 111.995 18.9332C112.697 18.9332 113.058 18.4502 113.567 17.3462C113.986 16.4419 115.133 14.3742 115.827 13.1401C116.367 12.1773 116.668 11.552 116.915 11.552C116.971 11.552 117.027 11.6987 117.027 12.0593V17.1908C117.027 18.5715 117.748 18.9332 118.381 18.9332C118.985 18.9332 119.373 18.6035 119.772 18.062C121.332 15.8398 122.99 13.203 123.651 12.0593C123.772 11.8542 123.924 11.6987 124.04 11.6987C124.158 11.6987 124.224 11.7638 124.224 12.1487V17.5227C124.224 18.4811 124.522 18.9332 125.273 18.9332C125.966 18.9332 126.418 18.4502 126.691 17.8811C127.685 15.8111 129.159 13.0794 129.788 12.0042C129.942 11.7638 130.092 11.552 130.186 11.552C130.303 11.552 130.336 11.6987 130.336 12.0913V17.1908C130.336 18.5715 131.052 18.9332 131.683 18.9332C132.532 18.9332 133.074 18.33 133.612 17.6429C134.605 16.3471 136.053 14.0466 136.925 12.5699C137.223 13.0519 137.558 13.6231 137.832 14.2517C137.101 15.1219 136.386 16.1089 136.386 17.1577C136.386 18.2693 137.16 18.9332 137.979 18.9332C139.361 18.9332 140.624 17.6087 140.624 15.7825C140.624 15.0645 140.415 14.3124 140.144 13.5945C141.376 12.3913 142.853 11.2212 143.936 10.9521C143.425 11.6711 143.003 12.6924 143.003 14.008C143.003 16.528 144.45 18.9332 147.25 18.9332C149.959 18.9332 151.85 16.8004 151.85 13.826C151.85 12.9625 151.822 12.8434 151.766 12.485C152.391 12.2115 152.937 11.7936 153.363 11.4594C153.716 11.1892 153.993 11.0381 154.199 11.0381C154.472 11.0381 154.599 11.2488 154.599 11.6381V17.5227C154.599 18.4811 154.896 18.9332 155.648 18.9332C156.338 18.9332 156.822 18.4502 157.094 17.8811C158.082 15.8111 159.529 13.0519 160.159 12.0042C160.309 11.7638 160.432 11.5796 160.523 11.5796C160.646 11.5796 160.704 11.6711 160.704 12.0593V16.7441C160.704 18.062 161.301 18.9332 162.629 18.9332C164.018 18.9332 164.708 17.6087 165.915 15.5696C165.971 15.4472 166 15.3601 166 15.2729C166 15.0028 165.759 14.8495 165.52 14.8495C165.251 14.8495 165.097 15.1219 164.196 16.1089C164.018 16.2964 163.834 16.5566 163.504 16.5566C163.38 16.5566 163.295 16.4122 163.295 16.2291V10.9775C163.295 9.56696 162.656 8.9979 161.843 8.9979C161.185 8.9979 160.646 9.2681 160.071 10.1084C159.046 11.6116 157.995 13.7433 157.428 14.8175C157.362 14.9432 157.275 15.1219 157.211 15.1219C157.147 15.1219 157.123 15.0292 157.123 14.8175V10.9775C157.123 9.87023 156.822 8.9979 155.648 8.9979C154.411 8.9979 153.782 9.83936 152.88 10.468C152.303 10.8925 151.795 11.1892 151.4 11.369C150.803 9.83936 149.685 9.06407 148.757 9.08723C147.818 9.11922 147.162 9.69268 147.162 10.6532C147.162 11.6381 147.764 12.324 148.57 12.6295C149.022 12.8092 149.444 12.8434 150.054 12.8434C150.23 12.8434 150.405 12.8434 150.533 12.8092C150.592 13.1081 150.561 13.5338 150.561 13.8624C150.561 15.3347 149.685 16.8004 148.059 16.8004C146.374 16.8004 145.385 15.1803 145.385 13.3221C145.385 11.9105 145.803 10.7426 146.493 9.9353C146.767 9.63313 146.98 9.45006 146.98 9.17325C146.98 9.03319 146.767 8.9979 146.587 8.9979C145.448 8.9979 144.18 9.50961 143.306 9.95736C142.161 10.5584 140.807 11.552 139.697 12.5413C139.153 11.3381 138.495 10.2882 138.159 9.47543C138.035 9.14568 137.954 8.763 137.703 8.763C137.495 8.763 137.403 8.97254 137.255 9.3861C136.712 10.9775 133.825 15.6314 133.193 16.2611C133.132 16.3471 133.042 16.4419 133.01 16.4419C132.954 16.4419 132.92 16.4122 132.92 16.2291V10.9775C132.92 9.56696 132.353 8.9979 131.562 8.9979C130.9 8.9979 130.336 9.2681 129.788 10.1084C128.794 11.6116 127.593 13.8018 127.021 14.8792C126.932 15.0645 126.844 15.1219 126.815 15.1219C126.781 15.1219 126.75 15.0028 126.75 14.8175V10.9775C126.75 9.56696 126.182 8.9979 125.398 8.9979C124.734 8.9979 124.098 9.24383 123.591 10.1084C122.323 12.2413 120.219 15.5112 119.825 16.0471C119.772 16.1398 119.708 16.2004 119.644 16.2291C119.591 16.2291 119.555 16.1706 119.555 16.0218V10.9775C119.555 9.56696 118.985 8.9979 118.199 8.9979C117.113 8.9979 116.515 9.99265 116.121 10.6191C115.58 11.4892 114.862 12.6615 114.287 13.7433C113.899 14.4668 113.567 15.1219 113.446 15.1219C113.385 15.1219 113.385 14.8495 113.385 14.3411V10.3224C115.284 8.21821 116.454 5.64092 116.454 2.82101C116.454 1.19766 115.734 0.302172 114.616 0.302172C112.542 0.302172 110.949 3.54336 110.949 7.38007V10.4999C109.982 11.101 109.079 11.3943 107.964 11.6116C107.396 9.9353 106.191 9.06407 105.234 9.08723C104.294 9.11922 103.635 9.69268 103.635 10.6532C103.635 12.2413 105.195 12.9008 106.583 12.9008H106.977C107.032 13.203 107.032 13.5338 107.032 13.8624C107.032 15.3347 106.162 16.8004 104.535 16.8004C102.849 16.8004 101.861 15.1803 101.861 13.3221C101.861 11.9105 102.281 10.7426 102.968 9.9353C103.238 9.63313 103.451 9.36294 103.451 9.17325C103.451 9.03319 103.238 8.9979 103.06 8.9979C101.915 8.9979 99.3882 10.5341 96.3748 13.5338C96.1103 11.133 95.8059 8.79058 95.8059 6.50994C95.8059 3.96133 96.3172 1.79649 96.4379 1.1723C96.4976 0.785207 96.5308 0.541484 96.5308 0.365033C96.5308 0.123516 96.408 0 96.0826 0C93.6435 0 88.285 3.872 88.285 9.6618C88.285 12.0285 88.7963 13.7125 89.6993 15.1803C89.3629 15.1219 89.0984 15.1219 88.8516 15.1219C87.8921 15.1219 86.9858 15.3601 86.4236 15.4825V14.8792C86.4236 13.5945 86.1181 11.8222 85.5748 11.2212C85.5106 11.1594 85.4209 11.133 85.3368 11.133C85.0889 11.133 84.7924 11.2488 84.4626 11.4307C84.0974 11.6116 83.7366 11.7936 83.7366 11.9105C83.7366 11.9678 83.7366 12.0285 83.8273 12.1773C84.0398 12.485 84.6131 13.0794 84.82 14.4933C83.7941 13.472 82.6255 13.0188 81.0961 13.0188C79.2867 13.0188 78.7422 13.826 78.7422 14.641C78.7422 16.2004 80.8194 16.9801 83.4422 16.9801C83.9225 16.9801 84.4626 16.8897 85.0015 16.7673C85.0015 17.2481 85.0624 17.6738 85.0624 18.0311C85.0624 18.5417 85.1498 18.9332 85.4851 18.9332C85.9953 18.9332 86.2985 17.9087 86.3561 16.4419C87.289 16.2004 88.254 15.9931 89.0696 15.9931C89.4592 15.9931 89.9461 16.0471 90.4231 16.1398ZM84.4936 15.8398C83.9867 15.8994 83.6779 15.8993 83.1412 15.8993C81.9637 15.8993 81.0961 15.4472 81.0961 14.7932C81.0961 14.3742 81.3041 14.1304 81.9062 14.1304C82.8712 14.1304 83.6492 14.7932 84.4936 15.8398Z" fill="#222222"/>
</svg>
