<svg width="84" height="14" viewBox="0 0 84 14" fill="none" xmlns="http://www.w3.org/2000/svg">
<mask id="mask0" mask-type="alpha" maskUnits="userSpaceOnUse" x="0" y="0" width="84" height="14">
<path d="M3.13263 4.036V13.9999H0V4.036H3.13263ZM83.5184 4.02769V6.01294L74.1211 6.01592C73.9045 6.01609 73.7092 6.14275 73.6221 6.33866C73.5987 6.4041 73.5847 6.47285 73.5825 6.54233V7.39897C73.5847 7.45393 73.5914 7.50868 73.6026 7.56267C73.645 7.81503 73.8621 8.00241 74.1211 8.01061H82.1019C82.1019 8.026 82.9 7.96629 83.3789 8.44439C84.077 9.13251 83.9972 9.97812 83.9972 10.7118V11.8674C83.9375 12.8621 83.7779 13.3956 82.9597 13.8193C82.6807 13.9672 82.2816 14.0155 80.047 13.9958L70.9287 13.9877V12C70.9287 12 80.326 12.0099 80.3461 12.0021C80.6324 11.9875 80.8629 11.7652 80.8847 11.4829L80.9048 10.561C80.8942 10.2623 80.6486 10.0243 80.3461 10.0205L73.0635 10.0231C72.2654 9.97205 71.647 9.95054 71.0682 9.34443C70.4499 8.68198 70.4499 7.92467 70.4499 7.25274V6.39208C70.4499 5.32348 70.8489 4.65508 71.5075 4.30016C71.9065 4.08015 72.425 4.03342 74.5603 4.03342L83.5184 4.02769ZM65.2182 4.02358C67.1563 4.02839 67.4659 4.11434 67.7565 4.23236C68.4747 4.53303 69.0931 5.37195 69.0931 6.44296V13.9993C69.0931 13.9993 58.5517 13.9896 57.4539 13.9886L57.3618 13.9885C56.6234 13.9309 56.264 13.7387 56.0246 13.3C55.8454 12.9573 55.865 12.4608 55.8454 11.9845C55.8253 11.1034 55.8454 9.96239 55.8454 9.96239C55.8454 8.57414 56.3438 7.9905 57.3216 8.00393H65.9409V6.66556C65.9337 6.31715 65.6546 6.03372 65.3025 6.01648H56.3243V4.02336L65.2182 4.02358ZM14.086 4.02673C16.9992 4.00859 17.2582 4.23927 17.7772 4.81539C18.2561 5.36252 18.1763 6.78901 18.1763 7.85997V13.9918H15.0236V6.62377C15.0269 6.46644 14.9644 6.31473 14.8517 6.20391C14.7384 6.09309 14.5843 6.03288 14.4253 6.03721H7.58182V13.9934L4.46929 13.9974V4.02673H14.086ZM45.5897 0.0309485V13.9948H42.4778V0.0309485H45.5897ZM22.6255 0V4.0342L26.3162 4.0287V5.9556H22.6255V11.2258C22.6255 11.561 22.7053 11.8333 23.0642 11.9356C23.4833 12.0571 26.2565 11.9948 26.2565 11.9948V13.9932L23.543 13.9889C21.4284 13.9889 21.0293 14.0202 20.5304 13.7753C19.8523 13.4453 19.4929 12.7509 19.4929 11.6962V0H22.6255ZM30.7459 4.03342C31.0852 4.03342 38.3874 4.02258 38.6866 4.03342C39.5645 4.06459 40.103 4.15665 40.4423 4.4786C40.8414 4.85875 41.1606 5.34044 41.1606 6.41381L41.1405 10.0197H30.7057L30.7258 11.4127C30.718 11.5685 30.7755 11.7204 30.8854 11.8326C30.9948 11.9447 31.1466 12.0068 31.3045 12.0042H40.6617V13.9877L31.6835 13.9918C29.5884 13.9918 28.9499 13.8601 28.6508 13.7308C27.9727 13.4258 27.6132 12.7412 27.5932 11.6962V6.41381C27.5932 5.47373 27.9526 4.85875 28.3717 4.55471C28.6909 4.30117 28.9901 4.03342 30.7459 4.03342ZM50.059 0.0309485V13.9885H46.9269V0.0309485H50.059ZM54.5082 4.036V13.9825H51.3957V4.036H54.5082ZM65.961 10.0132L59.5362 10.0174C59.2359 10.0304 58.9942 10.2663 58.9775 10.5629V11.5068C59.0009 11.8018 59.2571 12.0254 59.5563 12.0117L65.3421 12.0064C65.504 12.0096 65.6602 11.9494 65.7769 11.8384C65.893 11.7275 65.9594 11.575 65.961 11.4153V10.0132ZM37.4096 6.00918L31.3045 6.01592C31.1427 6.01699 30.9881 6.0822 30.8759 6.19689C30.7632 6.31159 30.7018 6.46622 30.7057 6.62596V8.00056L38.028 8.01673V6.62832C38.0274 6.28968 37.7523 6.01407 37.4096 6.00918ZM3.13263 0.0262304V2.02468H0.0200917V0.0262304H3.13263ZM54.5082 0.0254441V2.0239H51.3957V0.0254441H54.5082Z" fill="white"/>
</mask>
<g mask="url(#mask0)">
<path fill-rule="evenodd" clip-rule="evenodd" d="M-2.7905 14.042H86.7906V-2.80835H-2.7905V14.042Z" fill="#222222"/>
</g>
</svg>
