<svg width="100" height="22" viewBox="0 0 100 22" fill="none" xmlns="http://www.w3.org/2000/svg">
<path d="M24.3756 3.24316V7.10532H28.3228V18.8365H33.2395V7.10532H37.1867V3.24316H24.3756ZM57.8233 3.26659V18.8351H62.364V15.6384L63.5553 14.4921L66.0454 18.8351H71.2252L66.6872 11.5352L71.0282 7.41259H65.4725L62.3847 10.6754V3.26659H57.8233ZM85.1642 4.08228L85.1849 7.67851H83.5956V10.1476H85.0899L85.0941 15.6839C85.0941 16.2562 85.0947 17.2694 85.8695 18.0428C86.7721 18.9696 88.3824 18.9922 88.8664 18.9922C89.813 18.9922 90.7187 18.8811 91.7324 18.7497V15.6398C91.4671 15.6839 91.1797 15.728 90.9171 15.728C89.7042 15.728 89.6831 14.9779 89.6831 14.5361L89.7202 10.1408L93.3451 10.1393L93.3658 15.6839C93.3658 16.2562 93.3651 17.2694 94.1343 18.0428C95.0404 18.9696 96.6482 18.9921 97.1339 18.9921C98.0815 18.9921 98.9845 18.881 99.9999 18.7496V15.6398C99.7337 15.6839 99.449 15.728 99.1846 15.728C97.9709 15.728 97.9492 14.9779 97.9492 14.5361L97.9286 10.1476H99.9807V7.67848H98.014L98.003 4.08225H93.4429L93.4512 7.67848H89.7478V4.08225H85.1643L85.1642 4.08228ZM76.9407 6.94824C73.2352 6.94824 70.6564 9.35361 70.6564 13.0811C70.6564 16.2566 72.7301 19.2994 76.9628 19.2994C79.6952 19.2994 81.6798 18.2209 83.024 16.1689L79.2752 14.6037C78.8133 15.5305 78.2404 16.0821 77.2038 16.0821C76.3682 16.0821 75.9477 15.6601 75.8376 15.5516C75.329 15.0437 75.3078 14.448 75.2867 13.9409H83.2678C83.2246 12.1993 83.2011 10.3015 81.5256 8.64715C80.1382 7.30147 78.329 6.94824 76.9407 6.94824ZM41.9285 7.03781C40.7386 7.03781 39.108 7.14715 37.8299 7.80941C36.1983 8.66832 35.9558 9.8826 35.7778 10.8517L40.0335 10.7429C40.1877 9.94835 40.4751 9.68468 41.5099 9.68468C42.8126 9.68468 43.0313 10.2129 43.0551 10.9854C42.3702 11.1838 41.8845 11.2944 40.6284 11.469C38.6214 11.7345 37.3895 11.9127 36.3521 12.9709C35.535 13.7866 35.3811 14.7351 35.3811 15.4194C35.3811 17.3603 36.6391 19.1024 39.5046 19.1024C41.6421 19.1024 42.7012 18.3532 43.2741 17.9546V18.8365H47.7515C47.4201 18.3735 47.3521 18.1747 47.3521 17.4269V11.2058C47.3521 9.83812 47.3528 7.03781 41.9285 7.03781ZM56.6512 7.17008C54.9086 7.17008 54.0712 7.30147 52.8363 8.40465V7.34507H48.4718V18.8365H52.9919V13.4559C53.0131 12.7063 53.0573 10.9633 55.7271 10.9633C56.0338 10.9633 56.3418 10.9845 56.6512 11.0074V7.17008ZM77.0509 9.839C77.6679 9.839 78.3757 10.1917 78.5714 11.0074C78.6164 11.1829 78.6164 11.3606 78.6375 11.5352H75.3293C75.4404 11.0299 75.6838 9.839 77.0509 9.839H77.0509ZM43.0303 13.522C43.0303 13.9189 43.031 14.3818 42.8127 14.8668C42.4152 15.7504 41.3547 16.1689 40.7166 16.1689C39.8572 16.1689 39.5927 15.5971 39.5927 15.2885C39.5927 15.1544 39.6368 14.6252 40.5182 14.2716C40.9149 14.1402 41.3115 14.0503 41.6861 13.963C42.148 13.8307 42.5896 13.6764 43.0303 13.522Z" fill="#222222"/>
<path d="M11.0021 21.0749C9.83505 21.0757 8.67684 20.873 7.57946 20.4744C5.94616 19.7795 4.57906 18.5794 3.67647 17.0503C2.82589 15.3792 2.45216 13.5053 2.59759 11.6358C3.01363 5.41535 10.3595 3.78484 13.0558 7.29365C15.7512 10.8025 11.3405 13.3369 11.2489 11.8122C11.0162 8.08378 7.96729 9.39065 7.85447 11.6287C7.516 18.3501 18.7155 17.5591 18.8495 10.0185C18.927 5.57761 15.8641 2.75398 14.326 1.50442C19.5722 3.32805 22.3461 9.06173 20.5224 14.3104C19.1157 18.3615 15.2955 21.0741 11.0091 21.0679L11.0021 21.0749ZM11.0091 9.50562e-06C4.93692 -0.00789173 0.00794258 4.91094 9.67146e-06 10.9859C-0.00795849 17.0608 4.90871 21.9921 10.9809 22C17.0531 22.0079 21.9821 17.0891 21.99 11.0141C21.982 4.94533 17.0681 0.0264645 11.0021 0.0141188L11.0091 9.50562e-06V9.50562e-06Z" fill="#222222"/>
</svg>
