<svg width="126" height="22" viewBox="0 0 126 22" fill="none" xmlns="http://www.w3.org/2000/svg">
<path fill-rule="evenodd" clip-rule="evenodd" d="M76.9676 4.16377V18.6117H81.405V4.16377H76.9676ZM42.0908 4.13991V18.5998H46.5672V7.3731L50.0575 7.38503C51.1993 7.38503 52.0037 7.64751 52.5487 8.18438C53.2493 8.86443 53.5348 9.9859 53.5348 12.0022V18.5998H57.8684V10.6182C57.8684 4.9154 53.911 4.13991 50.0575 4.13991H42.0908ZM84.1168 4.16377V18.6117H91.3049C95.1325 18.6117 96.3911 18.0271 97.7405 16.7148C98.7007 15.7961 99.3105 13.7679 99.3105 11.5488C99.3105 9.52061 98.7915 7.70716 97.8703 6.57375C96.2484 4.55748 93.874 4.16377 90.3318 4.16377H84.1168ZM88.5153 7.30152H90.4226C93.1863 7.30152 94.9768 8.43493 94.9768 11.4056C94.9768 14.3644 93.1993 15.5098 90.4226 15.5098H88.5153V7.30152ZM70.5839 4.16377L66.886 15.6052L63.3438 4.16377H58.5561L63.6163 18.6117H70L75.0992 4.16377H70.5839ZM101.386 18.5998H105.824V4.16377H101.386V18.5998ZM113.817 4.16377L107.627 18.5998H112L112.986 16.0586H120.317L121.251 18.5998H126L119.746 4.16377H113.817ZM116.697 6.80043L119.383 13.5531H113.92L116.697 6.80043ZM13.481 6.56182V4.58135C13.6886 4.56942 13.9092 4.55748 14.1168 4.55748C20.0334 4.39046 23.8999 9.22234 23.8999 9.22234C23.8999 9.22234 19.722 14.5672 15.2326 14.5672C14.5839 14.5672 14.013 14.4718 13.494 14.3048V8.27983C15.648 8.52601 16.1926 9.35996 17.3975 11.205C17.4772 11.3271 17.5598 11.4536 17.646 11.5846L20.721 9.19848C20.721 9.19848 18.4764 6.49024 14.6877 6.49024C14.2725 6.50217 13.8703 6.52603 13.481 6.56182ZM6.43559 9.69957C6.43559 9.69957 9.08248 7.00325 13.481 6.56182V8.27983H13.468C11.1715 8.01735 9.35496 10.0098 9.35496 10.0098C9.35496 10.0098 10.38 13.3384 13.481 14.3167V15.8796C7.96664 14.9729 6.43559 9.69957 6.43559 9.69957ZM13.481 0V2.95879C13.5848 2.95282 13.6918 2.94685 13.7989 2.94089C13.9059 2.93492 14.013 2.92896 14.1168 2.92299C22.3299 2.66052 27.6886 9.11497 27.6886 9.11497C27.6886 9.11497 21.5385 15.9989 15.1418 15.9989C14.5579 15.9989 14.013 15.9512 13.494 15.8677V17.705C13.9351 17.7527 14.4022 17.7885 14.8693 17.7885C20.8378 17.7885 25.1455 14.9848 29.3235 11.68C29.6346 11.9122 30.3866 12.2932 31.171 12.6907C32.1202 13.1717 33.1168 13.6767 33.4365 13.9707C29.4662 17.0249 20.215 19.4946 14.9731 19.4946C14.4671 19.4946 13.987 19.4707 13.507 19.423V22H36.1742V0L13.481 0ZM3.68489 9.47289C3.68489 9.47289 6.95459 5.04664 13.481 4.58135V2.97072C6.25394 3.50759 0 9.13883 0 9.13883C0 9.13883 3.54217 18.564 13.481 19.4349V17.7169C6.18906 16.8699 3.68489 9.47289 3.68489 9.47289Z" fill="#222222"/>
</svg>
