<svg width="86" height="34" viewBox="0 0 86 34" fill="none" xmlns="http://www.w3.org/2000/svg">
<path d="M20.4385 16.1264C20.4385 16.4207 20.6734 16.6584 20.9641 16.6584H22.6339C22.9245 16.6584 23.1594 16.4207 23.1594 16.1272V14.073H29.3658V16.1272C29.3658 16.4207 29.6015 16.6584 29.8913 16.6584H31.562C31.8518 16.6584 32.0875 16.4207 32.0875 16.1272V11.6041H30.6494V5.4337C30.6502 5.37142 30.6386 5.30958 30.6153 5.25172C30.5919 5.19387 30.5572 5.14114 30.5132 5.09655C30.4692 5.05196 30.4168 5.01638 30.3588 4.99185C30.3009 4.96732 30.2386 4.95433 30.1756 4.95361H23.2733C22.9787 4.95361 22.7414 5.19759 22.7478 5.49667C22.7589 5.96889 22.7613 6.72838 22.7151 7.67518C22.657 8.86046 22.3018 10.2795 21.5549 11.6041H20.4385V16.1272V16.1264ZM24.639 10.725C25.0642 9.75532 25.1789 8.19699 25.2179 7.43278H27.9253L27.9285 11.6041H24.1755C24.3404 11.3404 24.4956 11.0531 24.639 10.725ZM54.8154 13.5213V5.46282C54.8169 5.32352 54.7623 5.18933 54.6638 5.08972C54.5653 4.99011 54.4308 4.93323 54.2898 4.93157H52.6192C52.4782 4.93323 52.3437 4.99011 52.2452 5.08972C52.1467 5.18933 52.0921 5.32352 52.0936 5.46282V8.14347H48.2794V5.46361C48.2809 5.32431 48.2264 5.19012 48.1278 5.09051C48.0293 4.9909 47.8948 4.93402 47.7538 4.93236H46.0832C45.9423 4.93402 45.8077 4.9909 45.7092 5.09051C45.6107 5.19012 45.5562 5.32431 45.5576 5.46361V13.5213C45.5576 13.8156 45.7933 14.0533 46.0832 14.0533H47.7538C48.0437 14.0533 48.2794 13.8156 48.2794 13.5213V10.6935H52.0936V13.5213C52.0936 13.8156 52.3293 14.0533 52.6192 14.0533H54.289C54.5797 14.0533 54.8146 13.8156 54.8146 13.5213H54.8154ZM40.83 10.9249C40.8539 12.0519 40.8483 12.9712 40.8404 13.5142C40.8386 13.5838 40.8508 13.6531 40.8763 13.7179C40.9019 13.7828 40.9402 13.842 40.9891 13.8921C41.038 13.9422 41.0965 13.9822 41.1612 14.0098C41.2259 14.0373 41.2955 14.0518 41.3659 14.0525H43.0262C43.3161 14.0525 43.5518 13.8149 43.5518 13.5205V5.46361C43.5533 5.32431 43.4987 5.19012 43.4002 5.09051C43.3017 4.9909 43.1672 4.93402 43.0262 4.93236H41.0721C40.9958 4.93247 40.9204 4.94917 40.8513 4.98127C40.7822 5.01337 40.7212 5.06008 40.6724 5.1181L36.3421 10.2338C36.4109 9.60521 36.4443 8.97331 36.4424 8.34102V5.46361C36.4439 5.32431 36.3894 5.19012 36.2909 5.09051C36.1923 4.9909 36.0578 4.93402 35.9169 4.93236H34.2471C34.1061 4.93402 33.9716 4.9909 33.8731 5.09051C33.7745 5.19012 33.72 5.32431 33.7215 5.46361V13.5213C33.7215 13.8156 33.9564 14.0533 34.2471 14.0533H36.2012C36.2772 14.0531 36.3522 14.0364 36.421 14.0044C36.4898 13.9725 36.5506 13.9261 36.5993 13.8684L40.8993 8.80773C40.8499 9.1863 40.8077 9.8356 40.83 10.9256V10.9249ZM76.8409 13.1734L73.8285 9.4169L76.7477 5.78157C77.0185 5.43134 76.7716 4.91977 76.3321 4.92134L74.448 4.93079C74.3681 4.93145 74.2895 4.95025 74.2181 4.98573C74.1467 5.02121 74.0845 5.07242 74.0363 5.13542L71.6992 8.15606H70.3981V5.4644C70.3989 5.39536 70.386 5.32683 70.36 5.26272C70.3341 5.19862 70.2956 5.14019 70.2468 5.09079C70.198 5.04138 70.1398 5.00196 70.0756 4.97478C70.0114 4.9476 69.9424 4.93318 69.8725 4.93236H68.2019C68.132 4.93318 68.063 4.9476 67.9988 4.97478C67.9346 5.00196 67.8764 5.04138 67.8276 5.09079C67.7788 5.14019 67.7403 5.19862 67.7144 5.26272C67.6884 5.32683 67.6755 5.39536 67.6763 5.4644V13.5213C67.6763 13.8149 67.912 14.0525 68.2019 14.0525H69.8725C70.1624 14.0525 70.3981 13.8149 70.3981 13.5213V10.6644H71.7016L74.1383 13.8282C74.2378 13.9581 74.3907 14.0329 74.5523 14.0329H76.4276C76.8656 14.0329 77.1116 13.5221 76.8417 13.1734H76.8409ZM14.0674 14.1045C13.404 15.3866 12.6308 15.1615 11.9269 15.2339C11.614 15.2654 11.3854 15.5471 11.4037 15.8643V17.2873C11.4157 17.7988 11.907 18.0617 12.3481 18.0192C14.9839 17.7611 16.078 15.9989 16.4761 15.3252C17.2995 13.9321 19.5275 9.13199 20.7921 5.76032C20.9457 5.35106 20.6862 4.91032 20.2538 4.91268L18.611 4.92292C18.4607 4.92488 18.3147 4.97212 18.1923 5.05833C18.0699 5.14454 17.9771 5.26562 17.9262 5.40537L15.6607 11.8622L13.3093 5.36208C13.2633 5.23513 13.1792 5.1251 13.0682 5.04674C12.9572 4.96839 12.8246 4.92546 12.6882 4.9237L10.9315 4.91268C10.531 4.91032 10.2627 5.32981 10.4299 5.69815L14.0674 14.1045ZM85.8876 29.2384L82.8816 25.4764L85.8072 21.8466C86.0795 21.4971 85.8319 20.9848 85.3923 20.9856L83.5091 20.9919C83.4293 20.9922 83.3507 21.0107 83.2793 21.0459C83.2079 21.0811 83.1456 21.1321 83.0974 21.1949L80.7117 24.2675H79.4535L79.4583 21.5176C79.4593 21.4485 79.4464 21.3799 79.4205 21.3157C79.3946 21.2515 79.3561 21.193 79.3073 21.1435C79.2585 21.094 79.2003 21.0545 79.136 21.0273C79.0718 21 79.0027 20.9856 78.9328 20.9848L77.2629 20.9816C77.1931 20.9823 77.124 20.9967 77.0598 21.0237C76.9955 21.0508 76.9373 21.0902 76.8884 21.1395C76.8395 21.1888 76.801 21.2472 76.7749 21.3113C76.7489 21.3753 76.7358 21.4438 76.7366 21.5129L76.7222 29.5698C76.7207 29.7092 76.7752 29.8436 76.8737 29.9434C76.9722 30.0433 77.1067 30.1005 77.2478 30.1026L78.9176 30.1057C79.0586 30.1039 79.193 30.047 79.2917 29.9474C79.3903 29.8479 79.445 29.7138 79.444 29.5745L79.4488 26.7758H80.7953L83.1834 29.8893C83.2829 30.0184 83.4358 30.0939 83.5975 30.0939L85.4719 30.0971C85.9107 30.0979 86.1575 29.5879 85.8876 29.2384ZM3.3325 20.984H1.93102C1.84652 20.9849 1.76304 21.0023 1.68533 21.0351C1.60763 21.0679 1.53723 21.1155 1.47815 21.1752C1.41906 21.2349 1.37246 21.3056 1.341 21.3831C1.30954 21.4606 1.29383 21.5435 1.29478 21.627V29.432C1.29478 29.787 1.57985 30.075 1.93022 30.075H3.3317C3.41619 30.0741 3.49968 30.0568 3.57738 30.0239C3.65508 29.9911 3.72549 29.9435 3.78457 29.8838C3.84365 29.8241 3.89025 29.7535 3.92172 29.6759C3.95318 29.5984 3.96888 29.5155 3.96794 29.432V21.6278C3.96985 21.4593 3.904 21.2969 3.78485 21.1763C3.6657 21.0557 3.503 20.9868 3.3325 20.9848V20.984ZM12.2271 20.984H6.88795C6.80346 20.9849 6.71997 21.0023 6.64227 21.0351C6.56457 21.0679 6.49416 21.1155 6.43508 21.1752C6.376 21.2349 6.3294 21.3056 6.29794 21.3831C6.26647 21.4606 6.25077 21.5435 6.25171 21.627V29.432C6.25171 29.787 6.53599 30.075 6.88716 30.075H8.28864C8.37313 30.0741 8.45661 30.0568 8.53432 30.0239C8.61202 29.9911 8.68242 29.9435 8.74151 29.8838C8.80059 29.8241 8.84719 29.7535 8.87865 29.6759C8.91012 29.5984 8.92582 29.5155 8.92488 29.432V23.6882H12.2271C12.5775 23.6882 12.8626 23.4002 12.8626 23.0452V21.627C12.8645 21.4585 12.7986 21.2961 12.6795 21.1755C12.5603 21.0549 12.3976 20.9861 12.2271 20.984ZM19.8644 20.8274C18.7392 20.8274 17.8633 21.3177 17.1896 21.9937V21.627C17.1915 21.4585 17.1257 21.2961 17.0065 21.1755C16.8874 21.0549 16.7247 20.9861 16.5542 20.984H15.1527C14.9822 20.9861 14.8195 21.0549 14.7003 21.1755C14.5812 21.2961 14.5153 21.4585 14.5173 21.627V33.357C14.5173 33.7119 14.8015 34 15.1527 34H16.5542C16.7247 33.9979 16.8874 33.929 17.0065 33.8085C17.1257 33.6879 17.1915 33.5255 17.1896 33.357V29.0755C17.8673 29.724 18.7185 30.2136 19.7457 30.2136C22.5535 30.2136 24.3085 28.1122 24.3085 25.5197C24.3085 22.9272 22.5702 20.8274 19.8652 20.8274H19.8644ZM19.4264 27.78C18.1308 27.78 17.1817 26.716 17.1817 25.5197C17.1817 24.3234 18.1308 23.2585 19.4272 23.2585C20.7236 23.2585 21.6202 24.3226 21.6202 25.5197C21.6202 26.716 20.7236 27.78 19.4272 27.78H19.4264ZM3.30463 16.5955H1.95889C1.87066 16.5964 1.78349 16.6145 1.70235 16.6487C1.62122 16.683 1.5477 16.7327 1.48603 16.7951C1.42435 16.8574 1.37571 16.9312 1.34289 17.0121C1.31007 17.0931 1.29372 17.1796 1.29478 17.2668V18.6284C1.29478 18.9999 1.59179 19.3005 1.95809 19.3005H3.30383C3.67012 19.3005 3.96794 18.9999 3.96794 18.6292V17.2676C3.9691 17.1804 3.95285 17.0938 3.92013 17.0128C3.88741 16.9319 3.83886 16.858 3.77726 16.7956C3.71565 16.7332 3.6422 16.6834 3.5611 16.649C3.48 16.6147 3.39285 16.5965 3.30463 16.5955ZM34.9605 20.9793H33.5591C33.3886 20.9813 33.2259 21.0502 33.1067 21.1708C32.9876 21.2914 32.9217 21.4537 32.9236 21.6223V22.1653C32.2014 21.4027 31.2737 20.8274 30.1159 20.8274C27.4101 20.8274 25.8047 22.9272 25.8047 25.5197C25.8047 28.1122 27.4268 30.2159 30.2345 30.2136C31.2976 30.2144 32.1998 29.6784 32.9236 28.9858V29.4273C32.9236 29.7831 33.2079 30.0703 33.5591 30.0703H34.9605C35.045 30.0694 35.1284 30.052 35.2061 30.0192C35.2838 29.9864 35.3541 29.9387 35.4131 29.879C35.4722 29.8193 35.5187 29.7487 35.5501 29.6712C35.5814 29.5937 35.597 29.5108 35.596 29.4273V21.6223C35.5979 21.4537 35.532 21.2914 35.4129 21.1708C35.2938 21.0502 35.1311 20.9813 34.9605 20.9793ZM30.686 27.78C29.3897 27.78 28.493 26.716 28.493 25.5197C28.493 24.3234 29.3897 23.2585 30.686 23.2585C31.9211 23.2585 32.8392 24.225 32.9236 25.352V25.6873C32.8392 26.8136 31.9211 27.78 30.686 27.78ZM50.8307 20.9793H49.4292C49.2587 20.9813 49.096 21.0502 48.9769 21.1708C48.8577 21.2914 48.7919 21.4537 48.7938 21.6223V27.4345H45.9685V21.6223C45.9704 21.4537 45.9046 21.2914 45.7854 21.1708C45.6663 21.0502 45.5036 20.9813 45.3331 20.9793H43.9316C43.8471 20.9802 43.7636 20.9975 43.6859 21.0304C43.6082 21.0632 43.5378 21.1108 43.4787 21.1705C43.4197 21.2302 43.3731 21.3009 43.3416 21.3784C43.3101 21.4559 43.2944 21.5388 43.2954 21.6223V27.4345H40.4176V21.6223C40.4195 21.4537 40.3536 21.2914 40.2345 21.1708C40.1153 21.0502 39.9526 20.9813 39.7821 20.9793H38.3814C38.2109 20.9813 38.0482 21.0502 37.9291 21.1708C37.8099 21.2914 37.7441 21.4537 37.746 21.6223V29.5391C37.746 29.8326 37.9809 30.0703 38.2715 30.0703H50.9414C51.232 30.0703 51.4669 29.8326 51.4669 29.5391V21.6223C51.4689 21.4537 51.403 21.2914 51.2839 21.1708C51.1647 21.0502 51.002 20.9813 50.8315 20.9793H50.8307ZM70.9523 20.5905C70.3899 20.5916 69.834 20.7085 69.3199 20.9337C68.8058 21.1589 68.3447 21.4875 67.9662 21.8985C66.9294 22.8689 65.6115 23.4254 64.1535 23.4254C62.5769 23.4254 61.29 22.8146 59.7094 21.6112C59.6619 21.5735 59.6136 21.5367 59.5645 21.5011L59.5525 21.4916L59.4809 21.4428C59.4061 21.391 59.329 21.3424 59.2499 21.2972C58.6264 20.9274 57.9131 20.7315 57.1859 20.7306C54.9261 20.7306 53.0882 22.5903 53.0882 24.8767C53.0888 25.9908 53.5354 27.0595 54.3304 27.8493C54.3647 27.8839 58.1893 31.8868 64.2204 31.8868C66.9613 31.8868 71.0717 30.7558 73.9416 27.5699C74.3556 27.1225 74.6655 26.5908 74.8494 26.0124L74.8525 26.0045L74.8549 25.9966C74.9092 25.8246 74.9518 25.6493 74.9823 25.4717L74.9855 25.4559L74.9887 25.4355C74.9967 25.3851 75.0046 25.3379 75.011 25.2906C75.0361 25.1067 75.0489 24.9214 75.0492 24.7358C75.0492 22.4502 73.2114 20.5905 70.9523 20.5905ZM72.4366 24.9459L72.4286 25.005L72.4175 25.0608C72.4095 25.0962 72.4016 25.1309 72.3912 25.1647L72.3816 25.1986C72.3122 25.4192 72.193 25.6213 72.0329 25.7896C69.8773 28.1893 66.6125 29.2589 64.2212 29.2589C59.4753 29.2589 56.3602 26.1871 56.1563 25.9825L56.1452 25.9699C55.9988 25.8269 55.8827 25.6565 55.8036 25.4687C55.7246 25.2808 55.6842 25.0793 55.6849 24.8759C55.6849 24.0377 56.357 23.3577 57.1859 23.3577C57.4817 23.3576 57.7705 23.4457 58.0149 23.6103L58.0189 23.6135C58.0547 23.6371 58.0889 23.6638 58.1224 23.6914C60.3297 25.378 62.193 26.0525 64.1535 26.0525C66.4922 26.0525 68.4161 25.0923 69.8104 23.7496L69.8168 23.7441C70.0915 23.4214 70.4976 23.2168 70.9515 23.2168C71.7804 23.2168 72.4525 23.8968 72.4525 24.7358C72.4525 24.8066 72.4461 24.8775 72.4366 24.9459ZM9.80399 9.79546C9.96723 8.19856 9.39947 6.39704 8.06647 4.91268C7.12286 3.86199 5.6091 2.59093 5.6091 2.59093C5.6091 2.59093 5.89657 2.73417 8.09593 2.73417C8.4309 2.73696 8.76589 2.7367 9.10086 2.73338C9.21387 2.73777 9.3266 2.71938 9.43219 2.67934C9.53779 2.6393 9.63404 2.57845 9.71508 2.50048C9.79613 2.42251 9.86027 2.32906 9.90362 2.22581C9.94697 2.12257 9.96861 2.01168 9.96723 1.89991V0.699676C9.96935 0.516329 9.89775 0.339648 9.76814 0.208453C9.63854 0.0772582 9.46154 0.00228257 9.27604 0L1.59896 0C0.996165 0 0.46424 1.27185 1.15304 1.9613C1.84183 2.65074 4.73636 5.0819 4.73636 5.0819C4.28009 4.85523 3.41531 4.92921 2.95107 5.05829C1.23585 5.53523 0 7.31315 0 9.2587C0 11.9756 1.95331 14.0809 4.58507 14.2509C7.19771 14.4201 9.53404 12.4305 9.80399 9.79546ZM5.03418 11.5757C3.78877 11.6411 2.75677 10.5935 2.72174 9.3319C2.6867 8.05768 3.56581 7.00542 4.79449 6.94088C6.0407 6.87556 7.07269 7.9231 7.10773 9.18472C7.14277 10.4589 6.26286 11.5112 5.03418 11.5757ZM61.1634 4.80565C58.4202 4.80565 56.2901 6.90704 56.2901 9.49954C56.2901 12.092 58.4202 14.1942 61.1634 14.1942C63.9067 14.1942 66.0368 12.0928 66.0368 9.49954C66.0368 6.90704 63.9067 4.80565 61.1634 4.80565ZM61.1571 11.7544C59.891 11.7544 58.9641 10.6903 58.9641 9.49324C58.9641 8.29694 59.891 7.23287 61.1571 7.23287C62.4232 7.23287 63.3509 8.29694 63.3509 9.49324C63.3509 10.6895 62.4232 11.7544 61.1571 11.7544Z" fill="#111111"/>
</svg>
