<svg width="52" height="36" viewBox="0 0 52 36" fill="none" xmlns="http://www.w3.org/2000/svg">
<path fill-rule="evenodd" clip-rule="evenodd" d="M52.0001 4.76733C52.0001 4.76733 50.9302 9.99755 47.0559 13.76C43.1843 17.5231 37.9358 18.3478 37.9358 18.3478C37.9358 18.3478 39.0042 13.1155 42.9028 9.35447C46.7758 5.6173 52.0001 4.76733 52.0001 4.76733Z" fill="#222222"/>
<path fill-rule="evenodd" clip-rule="evenodd" d="M46.5455 0.335205C46.5455 0.335205 47.3109 5.64326 44.9162 10.5137C42.5207 15.3582 37.8837 17.9614 37.8837 17.9614C37.8837 17.9614 37.1446 12.6519 39.513 7.78079C41.9106 2.93769 46.5455 0.335205 46.5455 0.335205Z" fill="#222222"/>
<path fill-rule="evenodd" clip-rule="evenodd" d="M7.59064 6.36418C7.18434 6.20919 6.85293 6.13205 6.57144 6.13205C5.98696 6.13205 5.50232 6.74989 4.45885 8.40002V16.9824H1.63144V3.78624H3.82029L4.07683 5.97706C5.07106 4.17475 5.68189 3.45312 6.77528 3.45312C7.15869 3.45312 7.54141 3.52957 7.92344 3.66001L7.59064 6.36418Z" fill="#222222"/>
<path fill-rule="evenodd" clip-rule="evenodd" d="M13.8854 17.3176C10.445 17.3176 8.68536 14.8427 8.68536 10.5908C8.68536 6.10677 10.599 3.45239 14.0601 3.45239C17.5267 3.45239 19.2587 6.00298 19.2587 10.2801C19.2594 14.6877 17.3756 17.3176 13.8854 17.3176ZM13.9346 5.7975C12.3309 5.7975 11.641 7.62787 11.641 10.2808C11.641 13.3742 12.4065 14.9963 14.0102 14.9963C15.6166 14.9963 16.3301 13.2178 16.3301 10.5389C16.3307 7.44694 15.5147 5.7975 13.9346 5.7975Z" fill="#222222"/>
<path fill-rule="evenodd" clip-rule="evenodd" d="M23.9227 17.3176C22.8023 17.3176 21.7318 17.1352 20.8408 16.8267L21.2228 14.4809C22.0112 14.842 22.9028 15.0742 23.6662 15.0742C24.738 15.0742 25.3246 14.5061 25.3246 13.6043C25.3246 12.7802 24.9412 12.2129 23.5407 11.3103C21.6791 10.1266 20.8637 9.09496 20.8637 7.29125C20.8637 5.02398 22.3675 3.45239 24.9932 3.45239C25.9084 3.45239 26.8784 3.60598 27.6417 3.86405L27.311 6.13132C26.7244 5.87465 25.8827 5.66917 25.2476 5.66917C24.252 5.66917 23.7445 6.31225 23.7445 7.00863C23.7445 7.806 24.0239 8.34809 25.3246 9.17211C27.5142 10.513 28.2532 11.5958 28.2532 13.3728C28.2532 15.7193 26.6974 17.3176 23.9227 17.3176Z" fill="#222222"/>
<path fill-rule="evenodd" clip-rule="evenodd" d="M35.8226 16.9565C35.2866 17.1353 34.395 17.2391 33.6032 17.2391C31.8955 17.2391 30.7009 16.4656 30.7009 13.7081V6.02968H29.2491V3.78626H30.7009L31.3617 0H33.5269V3.78626H35.8226V6.02968H33.5269V12.7046C33.5269 14.5854 33.8861 14.9206 34.9545 14.9206H35.8226V16.9565Z" fill="#222222"/>
<path fill-rule="evenodd" clip-rule="evenodd" d="M8.58554 30.9242C8.58554 34.5323 7.0824 36.0001 4.0248 36.0001C3.13179 36.0001 2.11189 35.9229 1.22235 35.7406L1.29653 33.9116C2.13963 33.9902 3.02987 34.0154 3.84453 34.0154C5.5536 34.0154 6.13877 33.3962 6.13877 31.0784V29.868C5.37541 30.8982 4.5864 31.3618 3.43755 31.3618C1.01781 31.3618 0 28.9122 0 25.9247C0 22.4196 1.45253 19.7155 4.89216 19.7155C6.06112 19.7155 7.51504 20.0226 8.58554 20.4104V30.9242ZM6.13946 22.0592C5.70752 21.8263 5.22219 21.7232 4.71466 21.7232C3.26144 21.7232 2.54731 23.1658 2.54731 25.6652C2.54731 27.6246 2.85515 29.2993 4.12741 29.2993C4.76459 29.2993 5.22218 28.9893 6.13946 27.6491V22.0592Z" fill="#222222"/>
<path fill-rule="evenodd" clip-rule="evenodd" d="M16.0771 22.1363C15.7186 22.0066 15.4399 21.9301 15.2111 21.9301C14.7015 21.9301 14.2924 22.4708 13.4022 23.8874V31.258H10.9547V19.9202H12.8143L13.0438 21.8011C13.9097 20.2568 14.4457 19.6355 15.3872 19.6355C15.6951 19.6355 16.023 19.7147 16.3572 19.8178L16.0771 22.1363Z" fill="#222222"/>
<path fill-rule="evenodd" clip-rule="evenodd" d="M21.4766 31.542C18.5209 31.542 17.0192 29.4024 17.0192 25.7697C17.0192 21.9308 18.6499 19.6362 21.6277 19.6362C24.5848 19.6362 26.0859 21.8271 26.0859 25.4871C26.0859 29.2747 24.4579 31.542 21.4766 31.542ZM21.5016 21.6468C20.1253 21.6468 19.5394 23.2191 19.5394 25.4864C19.5394 28.1394 20.203 29.5321 21.5778 29.5321C22.9527 29.5321 23.5663 28.0117 23.5663 25.7185C23.567 23.0634 22.8522 21.6468 21.5016 21.6468Z" fill="#222222"/>
<path fill-rule="evenodd" clip-rule="evenodd" d="M34.2673 31.2579L34.0871 29.7635C33.2204 30.9234 32.3295 31.5412 31.0309 31.5412C28.79 31.5412 27.8713 29.7375 27.8713 27.3419V19.9202H30.3181V26.8517C30.3181 28.5271 30.6239 29.4787 31.6438 29.4787C32.3572 29.4787 32.8911 28.9892 33.7064 27.8293V19.9202H36.1518V31.2579H34.2673Z" fill="#222222"/>
<path fill-rule="evenodd" clip-rule="evenodd" d="M42.4964 31.4129C41.9355 31.4129 41.3496 31.3344 40.9419 31.232V35.7687H38.4951V19.9202H40.3588L40.5349 21.4645C41.4273 20.2028 42.2925 19.6355 43.5142 19.6355C46.0386 19.6355 47.0814 22.1103 47.0814 25.1764C47.0807 28.6029 45.6802 31.4129 42.4964 31.4129ZM42.9297 21.698C42.3161 21.698 41.8342 22.0332 40.9419 23.346V29.1204C41.3496 29.3519 41.8578 29.4542 42.4194 29.4542C43.8206 29.4542 44.5334 28.011 44.5334 25.4338C44.5334 23.4239 44.2297 21.698 42.9297 21.698Z" fill="#222222"/>
</svg>
