<svg width="100" height="28" viewBox="0 0 100 28" fill="none" xmlns="http://www.w3.org/2000/svg">
<path fill-rule="evenodd" clip-rule="evenodd" d="M1.84874 1.86666H98.1512V26.1334H1.84874V1.86666ZM100 0H98.1512H1.84874H0V1.86666V26.1334V28H1.84874H98.1512H100V26.1334V1.86666V0ZM68.4526 18.9448H68.3775C67.603 18.9448 66.9736 19.5985 66.9736 20.4069C66.9736 21.2155 67.603 21.8692 68.3775 21.8692H68.4526C69.2269 21.8692 69.8563 21.2155 69.8563 20.4069C69.8563 19.5985 69.2269 18.9448 68.4526 18.9448ZM70.5566 8.38728V16.38C70.5566 17.8902 71.0939 19.1754 72.1654 20.2231C73.236 21.2698 74.5482 21.7943 76.0899 21.7943C77.623 21.7943 78.9118 21.2753 79.9879 20.2231C81.0728 19.162 81.6232 17.8706 81.6232 16.38V8.38728H79.259V16.38C79.259 17.2283 78.9438 17.976 78.3362 18.5702C77.7276 19.1654 76.9605 19.4742 76.0899 19.4742C75.2191 19.4742 74.4521 19.1654 73.8435 18.5702C73.2358 17.976 72.9206 17.2283 72.9206 16.38V8.38728H70.5566ZM16.8538 19.4524H8.49184V18.7188L17.1689 12.638V8.35304L6.1496 8.34712L6.1484 10.6588L14.9023 10.6635L14.917 11.4275L6.14802 17.5134L6.1805 21.764H16.8538V19.4524ZM65.6615 19.4726H57.2995V18.7388L65.9766 12.658V8.37312L54.9571 8.3672L54.956 10.6789L63.7099 10.6836L63.7246 11.4476L54.9556 17.5336L54.9881 21.7842H65.6615V19.4726ZM22.169 21.7542C22.7963 21.7542 23.3756 21.6019 23.9311 21.2915L27.0916 19.5006V21.7781H29.3738V8.34712H19.2466V10.6671H27.0261V11.5172L27.0252 11.5176L20.3785 15.257C19.2774 15.8578 18.5872 17.0252 18.5872 18.2737C18.5872 19.2658 18.9464 20.0958 19.6655 20.7731C20.4106 21.4238 21.2539 21.7542 22.169 21.7542ZM22.7487 19.3878C22.5415 19.5038 22.337 19.557 22.0869 19.557C21.4012 19.557 20.7887 18.976 20.7887 18.2882C20.7887 17.8163 21.0158 17.4438 21.451 17.1886L27.0768 14.0264V16.9325L27.0215 16.9639L22.7487 19.3878ZM46.3286 21.7542C46.9558 21.7542 47.535 21.6019 48.0906 21.2915L51.2511 19.5006V21.7781H53.5331V8.34712H43.4061V10.6671H51.1854V11.5172L51.1847 11.5176L44.538 15.257C43.4368 15.8578 42.7467 17.0252 42.7467 18.2737C42.7467 19.2658 43.1057 20.0958 43.825 20.7731C44.5701 21.4238 45.4133 21.7542 46.3286 21.7542ZM46.9082 19.3878C46.701 19.5038 46.4965 19.557 46.2462 19.557C45.5606 19.557 44.9482 18.976 44.9482 18.2882C44.9482 17.8163 45.1753 17.4438 45.6104 17.1886L51.2363 14.0264V16.9325L51.1809 16.9639L46.9082 19.3878ZM86.624 21.7542C87.2512 21.7542 87.8304 21.6019 88.3864 21.2915L91.5464 19.5006V21.7781H93.8288V8.34712H83.7016V10.6671H91.4808V11.5172L91.48 11.5176L84.8336 15.257C83.7328 15.8578 83.0424 17.0252 83.0424 18.2737C83.0424 19.2658 83.4016 20.0958 84.1208 20.7731C84.8656 21.4238 85.7088 21.7542 86.624 21.7542ZM87.204 19.3878C86.9968 19.5038 86.792 19.557 86.5416 19.557C85.856 19.557 85.244 18.976 85.244 18.2882C85.244 17.8163 85.4704 17.4438 85.9056 17.1886L91.532 14.0264V16.9325L91.4768 16.9639L87.204 19.3878ZM37.549 13.4468L42.0054 8.36856H39.1394L33.5551 14.7665V3.95589H31.2595V21.761H33.5551V17.9276L35.8948 15.2306L39.4689 21.761H42.0054L37.549 13.4468Z" fill="#111111"/>
</svg>
